<?xml version="1.0" encoding="UTF-8"?>
<svg xmlns="http://www.w3.org/2000/svg" id="Layer_1" viewBox="0 0 129.6234 40.2375">
  <defs>
    <style>.cls-1{fill:#a8b50a;}.cls-2{fill:#31495b;}</style>
  </defs>
  <path class="cls-2" d="m30.3023,27.0605c0-3.0499,2.3079-5.4184,5.4196-5.4184,2.0392,0,3.7704,1.0713,4.5528,2.6991l-1.5041.8644c-.5148-1.0915-1.6682-1.8121-3.0487-1.8121-2.0606,0-3.6265,1.5862-3.6265,3.667,0,2.0606,1.5659,3.6467,3.6265,3.6467,1.4007,0,2.5338-.7205,3.1105-1.7931l1.5255.887c-.8656,1.6064-2.617,2.6777-4.636,2.6777-3.1117,0-5.4196-2.3685-5.4196-5.4184Z"></path>
  <path class="cls-2" d="m51.2565,25.8857v6.3256h-1.7931v-6.2222c0-1.6896-.9679-2.6373-2.554-2.6373-1.648,0-2.988.9679-2.988,3.3994v5.46h-1.7919v-14.4229h1.7919v5.6051c.7622-1.2164,1.8953-1.7514,3.3376-1.7514,2.4113,0,3.9975,1.6064,3.9975,4.2436Z"></path>
  <path class="cls-2" d="m53.1732,18.8396c0-.6587.5351-1.2152,1.2152-1.2152.6599,0,1.195.5565,1.195,1.2152,0,.6599-.5351,1.195-1.195,1.195-.6801,0-1.2152-.5351-1.2152-1.195Zm.3091,3.0701h1.7919v10.3017h-1.7919v-10.3017Z"></path>
  <path class="cls-2" d="m64.4173,21.4001v.5113h-3.8227v-.3164c0-1.7899.9251-2.4839,2.7151-2.3378v-1.741c-2.9464-.207-4.5171,1.3393-4.5171,4.0788v.3164h-1.6438v1.7291h1.6438v8.5715h1.802v-8.5715h3.8227v8.5715h1.802v-8.5715h2.3893l1.0594-1.7291h-3.4488v-.5113c0-.7549.1587-1.3151.4875-1.7046.0119-.0364.0488-.073.0725-.0974.4506-.4627,1.1569-.6332,2.1307-.5478v-1.7412c-2.9464-.1949-4.4927,1.3393-4.4927,4.091Z"></path>
  <path class="cls-2" d="m69.1383,27.0605c0-3.0499,2.3079-5.4184,5.4196-5.4184,2.0392,0,3.7704,1.0713,4.5528,2.6991l-1.5041.8644c-.5148-1.0915-1.6682-1.8121-3.0487-1.8121-2.0606,0-3.6265,1.5862-3.6265,3.667,0,2.0606,1.5659,3.6467,3.6265,3.6467,1.4007,0,2.5338-.7205,3.1105-1.7931l1.5255.887c-.8656,1.6064-2.617,2.6777-4.636,2.6777-3.1117,0-5.4196-2.3685-5.4196-5.4184Z"></path>
  <path class="cls-2" d="m90.0925,25.8857v6.3256h-1.7931v-6.2222c0-1.6896-.9679-2.6373-2.554-2.6373-1.648,0-2.988.9679-2.988,3.3994v5.46h-1.7919v-14.4229h1.7919v5.6051c.7622-1.2164,1.8953-1.7514,3.3376-1.7514,2.4113,0,3.9975,1.6064,3.9975,4.2436Z"></path>
  <path class="cls-2" d="m102.4024,21.9096v10.3017h-1.7931v-1.7716c-.824,1.2568-2.1426,2.0392-3.8941,2.0392-2.8632,0-5.2127-2.3685-5.2127-5.4184s2.3495-5.4184,5.2127-5.4184c1.7514,0,3.0701.7824,3.8941,2.0392v-1.7716h1.7931Zm-1.7931,5.1509c0-2.101-1.5862-3.6884-3.667-3.6884-2.0606,0-3.6467,1.5873-3.6467,3.6884s1.5862,3.6884,3.6467,3.6884c2.0808,0,3.667-1.5873,3.667-3.6884Z"></path>
  <path class="cls-2" d="m111.4238,21.4001v.5113h-3.8227v-.3164c0-1.7899.9251-2.4839,2.7151-2.3378v-1.741c-2.9464-.207-4.5171,1.3393-4.5171,4.0788v.3164h-1.6438v1.7291h1.6438v8.5715h1.802v-8.5715h3.8227v8.5715h1.802v-8.5715h2.3893l1.0594-1.7291h-3.4488v-.5113c0-.7549.1587-1.3151.4875-1.7046.0119-.0364.0488-.073.0725-.0974.4506-.4627,1.1569-.6332,2.1307-.5478v-1.7412c-2.9464-.1949-4.4927,1.3393-4.4927,4.091Z"></path>
  <polygon class="cls-2" points="118.2699 17.173 118.8165 17.173 118.8165 18.6859 119.1247 18.6859 119.1247 17.173 119.6762 17.173 119.6762 16.891 118.2699 16.891 118.2699 17.173"></polygon>
  <polygon class="cls-2" points="121.3809 16.891 121.3809 16.8947 121.3552 16.891 120.8055 17.7073 120.2528 16.891 120.2271 16.8947 120.2271 16.891 119.9153 16.891 119.9153 18.6859 120.2271 18.6859 120.2271 17.3846 120.8043 18.233 121.3809 17.382 121.3809 18.6859 121.689 18.6859 121.689 16.891 121.3809 16.891"></polygon>
  <path class="cls-2" d="m17.4871,11.345h0c-1.7173,0-3.1094-1.3921-3.1094-3.1094v-.0003s-.5502,0-.5502,0v.0003c0,1.7173-1.3921,3.1094-3.1094,3.1094h-.0005v.5502h.0005c1.7173,0,3.1094,1.3921,3.1094,3.1094v.0003h.5502v-.0003c0-1.7173,1.3921-3.1094,3.1094-3.1094h0v-.5502Z"></path>
  <path class="cls-2" d="m12.0265,22.11l-3.1872,3.0251,2.9166-.0025.0026-.0013h.5859s-4.1229,6.7025-4.1229,6.7025h7.4824l.0319-8.344v-.0077c.0523.0179.1072.037.1608.0549,1.0441.3523,2.5848.7965,4.2543,1.0237.7288.0996,1.4181.1506,2.064.1506,1.8151,0,3.3009-.3931,4.4305-1.1743.6956-.4812,1.2458-1.1003,1.6478-1.8521.5323-.9956.8042-2.2235.8105-3.6774l.0026-.5489v-.0026l3.4004-1.5802-2.6869-1.2509c-.2132-1.0199-.9803-1.921-2.1201-2.4686-2.1355-1.0237-4.4267-.5131-6.6272,1.4781l-9.046,8.4755Z"></path>
  <polygon class="cls-1" points="14.1531 30.2753 11.0079 30.2753 11.5734 29.3563 14.1696 25.1313 14.1531 30.2753"></polygon>
  <path class="cls-1" d="m25.7583,22.2555c-1.3122.9075-3.3175,1.0416-5.4223.7556,1.1922-.3306,2.115-.8744,2.7634-1.6287.6127-.7174.8616-1.4947.9484-2.138.0217-.1634.0332-.3191.0383-.4621h3.4247c-.0638.7212-.2119,1.3466-.4506,1.8827-.2962.6676-.7289,1.1947-1.302,1.5904Z"></path>
  <path class="cls-1" d="m23.2514,17.2251s-.4799.0038-.6267.0051l-.0026,1.0888c-.0038.2285-.0204.4582-.0612.6829-.0358.2055-.0907.4072-.1723.6012-.2068.4914-.5693.9088-.9995,1.2215-.5425.3957-1.1858.6357-1.8368.7799-.2336.0511-.4684.0919-.7033.1238-1.025.143-2.0781.1455-3.1081.0625l-.1519-.0128-.854-.0689.0051-.0064,1.9977-1.8649c1.0058-.8897,1.9848-1.8304,2.9307-2.7392.7965-.7659,1.6223-1.5585,2.452-2.3091,1.7142-1.5547,3.3659-1.967,4.9053-1.2292.5578.2668,1.159.7735,1.2764,1.4232l-.8909.8922,1.3479,1.3492h-5.5078Z"></path>
  <path class="cls-2" d="m25.4161,14.1702c.6127,0,1.113.5004,1.113,1.113,0,.6152-.5004,1.1156-1.113,1.1156-.6152,0-1.1156-.5004-1.1156-1.1156,0-.6127.5004-1.113,1.1156-1.113Z"></path>
  <path class="cls-2" d="m25.4161,14.1702c.6127,0,1.113.5004,1.113,1.113,0,.6152-.5004,1.1156-1.113,1.1156-.6152,0-1.1156-.5004-1.1156-1.1156,0-.6127.5004-1.113,1.1156-1.113Z"></path>
</svg>
