<?xml version="1.0" encoding="UTF-8"?>
<!-- Generator: Adobe Illustrator 26.0.1, SVG Export Plug-In . SVG Version: 6.00 Build 0)  -->
<svg xmlns="http://www.w3.org/2000/svg" xmlns:xlink="http://www.w3.org/1999/xlink" version="1.1" id="Ebene_1" x="0px" y="0px" viewBox="0 0 80 80" style="enable-background:new 0 0 80 80;" xml:space="preserve">
<style type="text/css">
	.st0{fill:#1D1D1B;}
</style>
<rect x="6.7" y="26.6" class="st0" width="42.1" height="7.4"></rect>
<polygon class="st0" points="44.4,22.3 11.1,22.3 14.9,14.8 40.5,14.8 "></polygon>
<rect x="16.4" y="6.1" transform="matrix(0.9501 -0.312 0.312 0.9501 -2.9679 6.3867)" class="st0" width="4.2" height="12.8"></rect>
<path class="st0" d="M71.4,52.7H31.9v-1.8c0-6.5,5.3-11.8,11.8-11.8h16c6.5,0,11.8,5.3,11.8,11.8V52.7z"></path>
<path class="st0" d="M31.9,63.4h39.6v2.4c0,4-3.2,7.2-7.2,7.2H39.1c-4,0-7.2-3.2-7.2-7.2V63.4z"></path>
<path class="st0" d="M73.6,61.1H30.8c-1.7,0-3.1-1.4-3.1-3.1v0c0-1.7,1.4-3.1,3.1-3.1h42.7c1.7,0,3.1,1.4,3.1,3.1v0  C76.7,59.7,75.3,61.1,73.6,61.1z"></path>
<path class="st0" d="M29,65.8v-1.2c-2.5-1.2-4.2-3.7-4.2-6.6c0-2.9,1.7-5.4,4.2-6.6v-0.5c0-5.2,2.5-9.8,6.3-12.7H11.1L14.9,73h16.7  C30,71,29,68.5,29,65.8z"></path>
</svg>
